<svg xmlns="http://www.w3.org/2000/svg" viewBox="0 0 561 447.6"><defs><style>.cls-1{fill:#00a99d;}.cls-2{fill:none;stroke:#381a69;stroke-linecap:round;stroke-linejoin:round;stroke-width:28px;}.cls-3{fill:#381a69;}</style></defs><g id="Capa_2" data-name="Capa 2"><g id="bird"><path class="cls-1" d="M453.35,162.91c36.87,80.93,6,166.37-78.09,204.71-66.87,30.46-156.88,30.4-203.64-17.89,95.07,4,172.43-38.51,213-90.32,41.78-61,37.64-121.73,28.06-150.43A155.31,155.31,0,0,1,453.35,162.91Z"/><path class="cls-2" d="M73.64,285a279.93,279.93,0,0,0,38.27,38.85,275.63,275.63,0,0,0,29.75,21.67c7.46,4.73,15.07,9,22.76,12.95,84.83,43.11,180.63,37.32,227.42-6.71a94,94,0,0,0,9-9.67C486,236.41,405.08,170,381.22,160.58c-40.64-16-82.64,29-82.64,29S222,265.72,157.25,330q-7.94,7.89-15.59,15.47c-28.09,27.86-52.32,51.85-64.61,63.88A104.2,104.2,0,0,1,60.26,423C29.6,442.51,14,421.3,14,421.3s41.86-41.66,97.91-97.48L158,277.89c42.87-42.71,89.14-88.83,129.44-129,54.11-54,97.47-97.36,107.39-107.56,30.67-31.52,63-27.07,63-27.07s59.65,8.33,59.65,69.67c0,1.42,0,2.81-.1,4.17h0a73.79,73.79,0,0,1-5,24.09c-14.39,36.41-54.59,43.3-54.59,43.3"/><path class="cls-2" d="M146.82,389.06,115.39,423s-30.18,23.86-55.14,0"/><path class="cls-2" d="M391.84,351.73c63.3-38.16,80.63-81.3,83.8-111.39,2.42-22.74-3.25-38-3.25-38"/><circle class="cls-3" cx="463.27" cy="68.19" r="16.56"/><path class="cls-3" d="M523.79,69.41s18.33,15.94,34.78,25.93c4,2.44,2.81,8.88-1.77,9.45-22.07,2.74-47.77,8.07-47.77,8.07Z"/></g></g></svg>