<svg xmlns="http://www.w3.org/2000/svg" viewBox="0 0 499.82 546.5"><defs><style>.cls-1{fill:#00a99d;}.cls-2{fill:#289f84;}.cls-3,.cls-4,.cls-5,.cls-6{fill:none;stroke:#381a69;stroke-linecap:round;stroke-linejoin:round;}.cls-3{stroke-width:24px;}.cls-4{stroke-width:17px;}.cls-5{stroke-width:20px;}.cls-6{stroke-width:10px;}.cls-7{fill:#381a69;}</style></defs><g id="Capa_2" data-name="Capa 2"><g id="gato"><path class="cls-1" d="M300.25,98.63a166.31,166.31,0,0,1-39.93,108.78,159.5,159.5,0,0,1-31.49,28.09,152.75,152.75,0,0,1-48.09,21.6,150.82,150.82,0,0,1-37.07,4.6,152.26,152.26,0,0,1-24.3-1.95q-4-.66-8-1.51l.64-6.52c-1.56-1.8-2.35-2.79-2.35-2.79l2.9-3L127,231.12l-17.3-14.82a39.57,39.57,0,0,0,8.92-5.79l8.14-8.7,7.62-15.33a199.8,199.8,0,0,1,15.1-30.4h0L142,131.49h0c-2.79-18.91-5.41-45.85-2.87-70.27v0l-1-25.28,8.2-5.54a61.7,61.7,0,0,1,4.95-9.54c1.64.8,3.41,1.69,5.3,2.63l.05,0,87.12,42.83h0a143.69,143.69,0,0,1,51.14-10.2A170,170,0,0,1,300.25,98.63Z"/><path class="cls-2" d="M492,265.41a165.57,165.57,0,0,1-31.66-3c-.74-.15-1.46-.29-2.18-.45a160,160,0,0,1-54-22.09,156.4,156.4,0,0,1-27.94-23c-25.35-26.43-40.8-61.56-40.8-100.12A141.55,141.55,0,0,1,345,65.56l.37-1,.59,1.37c1,.41,2,.84,3,1.3l12.86-8.68c8.28-6.29,19-13.9,29.36-21.15l27.27-20.81,5.28-1.49L428.35,12a13.68,13.68,0,0,1,1.09,1.51l.35-.09,1,2.4a56.81,56.81,0,0,1,3.8,9.11v0h0c3.08,9.33,6.13,24.45,6.11,47.71v0l-10.2,76.58L452,202.42,475.47,227a23.06,23.06,0,0,0,2.37.45c-.49.12-1,.26-1.55.42h0l-15.11,8.26h0l-14.62,8,6.09,8,7.91,5.86A184.34,184.34,0,0,1,492,265.41Z"/><path class="cls-2" d="M214.54,325.71c-2.89,13.26-11.09,26.49-23.84,36.45a70.78,70.78,0,0,1-13.52,8.3c-15.47,7.22-32.15,7.9-45.27,2.1l7.45-13.38,31.57-56.71A267.05,267.05,0,0,0,214.54,325.71Z"/><path class="cls-1" d="M428.42,393.25c-17.22,2.89-33.87-2-43.74-14.68-11.44-14.66-10.59-35.67.34-53.54a179.8,179.8,0,0,0,20.63-11.42A304.8,304.8,0,0,1,428.42,393.25Z"/><path class="cls-1" d="M153.67,437.84c-20.4,1.72-38.46-14.84-40.32-37a45.6,45.6,0,0,1-.13-5.21c2.47-2.77,4.77-5.13,6.73-7a63.75,63.75,0,0,0,11.25-14.77l.71-1.29,7.45-13.38a33.87,33.87,0,0,1,7.57-1.51c11.75-1,22.71,4.08,30.25,12.79a42.09,42.09,0,0,1,10.06,24.19C189.11,416.78,174.08,436.12,153.67,437.84Z"/><path class="cls-1" d="M70.47,298.76a153.34,153.34,0,0,0-4.09,26.87h-53C10.43,305,9.5,285.85,10.25,271.89,13,220,88.08,226.49,70.47,298.76Z"/><path class="cls-1" d="M93.77,425.24c-1.08,2.5-2.06,5.06-2.9,7.7l-1.16.91h0L71,448.42l-8-5.19L38.74,412a0,0,0,0,0,0,0c-2.24-4.26-4.34-8.74-6.29-13.39l32.48-25.34,9.24,11.84C82.34,410.08,93.77,425.24,93.77,425.24Z"/><path class="cls-3" d="M432,152c6.47-33.39,8.75-59.32,8.76-79.26h0c0-23.26-3-38.38-6.11-47.71h0v0a56.81,56.81,0,0,0-3.8-9.11q-.78-1.46-1.35-2.31A13.68,13.68,0,0,0,428.35,12l-4.69,3.14c-6.6,4.46-19.32,13.07-32.55,22.3C380.72,44.69,370,52.3,361.75,58.59c-4.85,3.67-8.88,6.87-11.54,9.28-.43-.2-.88-.41-1.32-.6-1-.46-2-.89-3-1.3l-1-.41a126.39,126.39,0,0,0-50.09-9.45,143.69,143.69,0,0,0-51.14,10.2h0c-2.29,1-3.52,1.56-3.52,1.56s-54.94-30-83.6-44.39l-.05,0c-1.89-.94-3.66-1.83-5.3-2.63a61.7,61.7,0,0,0-4.95,9.54c-3.78,9.08-6,19.69-7.17,30.82v0c-2.54,24.42.08,51.36,2.87,70.27h0c2.17,14.74,4.44,24.59,4.44,24.59"/><path class="cls-4" d="M165.9,68.06l25.95,37.06S169,123.71,149.47,156.07h0a199.8,199.8,0,0,0-15.1,30.4q-.94,2.37-1.82,4.8a48.25,48.25,0,0,1-13.94,19.23,39.57,39.57,0,0,1-8.92,5.79L127,231.12,112.59,246l-2.9,3s.79,1,2.35,2.79,4.08,4.63,7.33,8a301.39,301.39,0,0,0,51.56,42.72,267.05,267.05,0,0,0,43.61,23.24A220.77,220.77,0,0,0,300,343.27c34.34,0,62.48-7.6,85.07-18.24a182.13,182.13,0,0,0,46.88-31.87,165.18,165.18,0,0,0,26.3-31.24l.83-1.33c1-1.67,1.51-2.6,1.51-2.6l-7.91-5.86-11-8.14s5-2.76,11.47-6.06h0c7.39-3.76,16.79-8.2,23.15-10.08h0c.54-.16,1.06-.3,1.55-.42a23.06,23.06,0,0,1-2.37-.45c-38-9-36.29-103.71-84.42-122.78l26.87-42.62"/><path class="cls-5" d="M422.55,473c9.19-25.84,9.35-54.18,5.87-79.7a304.8,304.8,0,0,0-22.77-79.64"/><path class="cls-5" d="M389.41,459.83c25.73,0,39.95,15.9,40.72,43.7s-22,32.94-40.72,32.94-45.71,3.19-53.54-55.18"/><path class="cls-5" d="M296.75,459.83c25.74,0,39.95,15.9,40.72,43.7s-22,32.94-40.72,32.94-45.71,3.19-53.53-55.18"/><path class="cls-5" d="M256.3,521.37s-138.57,7.17-162.66-42.86a58.62,58.62,0,0,1-6-24.91,65.25,65.25,0,0,1,3.2-20.66c.84-2.64,1.82-5.2,2.9-7.7a93.25,93.25,0,0,1,4.59-9.1,122.11,122.11,0,0,1,14.86-20.48c2.47-2.77,4.77-5.13,6.73-7a63.75,63.75,0,0,0,11.25-14.77l.71-1.29,7.45-13.38,31.57-56.71"/><path class="cls-5" d="M93.77,425.24a48.6,48.6,0,0,0-4.06,8.61h0c-4,11.28-2,19.74-2,19.74A45,45,0,0,1,71,448.42a54.42,54.42,0,0,1-8-5.19C53.57,435.8,45.5,424.92,38.74,412a0,0,0,0,0,0,0c-2.24-4.26-4.34-8.74-6.29-13.39-9.44-22.45-15.63-48.76-19.08-73C10.43,305,9.5,285.85,10.25,271.89,13,220,88.08,226.49,70.47,298.76a153.34,153.34,0,0,0-4.09,26.87,159,159,0,0,0,7.78,59.49C82.34,410.08,93.77,425.24,93.77,425.24Z"/><path class="cls-6" d="M181.66,241.32s-13-11.12-38.92-9.27"/><path class="cls-6" d="M181.66,257.17s-27.8-2.16-38.92,1.65"/><path class="cls-6" d="M494.82,233.9s-17.63-2.14-41.71,4"/><path class="cls-6" d="M460.54,258a184.34,184.34,0,0,1,31.5,7.42"/><path class="cls-6" d="M301.18,265.41s-3.49,10.79,7.41,13c4.63.92,11.94,2.78,22.65-6.49,6.07,6.49,13.18,8.2,19.35,6.88s11.33-5.95,7.83-13.36"/><polygon class="cls-6" points="320.64 245.95 335.87 245.95 328.25 256.56 320.64 245.95"/><ellipse class="cls-7" cx="243.73" cy="220.01" rx="19.46" ry="24.09"/><ellipse class="cls-7" cx="395.68" cy="218.15" rx="19.46" ry="24.09"/></g></g></svg>