<svg xmlns="http://www.w3.org/2000/svg" viewBox="0 0 550.27 573.45"><defs><style>.cls-1,.cls-4{fill:#00a99d;}.cls-2,.cls-3,.cls-5{fill:none;}.cls-2,.cls-3{stroke:#00a99d;}.cls-2,.cls-3,.cls-4,.cls-5{stroke-linecap:round;stroke-linejoin:round;}.cls-2{stroke-width:31px;}.cls-3,.cls-4,.cls-5{stroke-width:28px;}.cls-4,.cls-5{stroke:#381a69;}.cls-6{fill:#f26885;}.cls-7{fill:#381a69;}</style></defs><g id="Capa_2" data-name="Capa 2"><g id="perro"><path class="cls-1" d="M478.1,226c-2.25,3.49-10.31,6.22-18.59,8.68a45.53,45.53,0,0,1-16.91,5.42c-2.84,1.24-4.56,2.52-4.33,3.9.65,3.89-3.39,31.47-6.32,50.42a219.17,219.17,0,0,1-62.65-11.23C284.63,255.14,232.11,183.74,252,123.71c11-33.28,42-56.08,81.85-65q3.61-.81,7.32-1.46A173.74,173.74,0,0,1,359,55a207.85,207.85,0,0,1,63.53,5.45A170.44,170.44,0,0,1,447,80.37h0C470.57,93.22,481.59,116.29,487,137a97.14,97.14,0,0,1,5.63,39.16c.07.76.14,1.43.21,2C494.34,190.33,483.27,218,478.1,226Z"/><path class="cls-2" d="M311.77,540.5s130,19,118.33-65c-9.83-70.82-62.33-94-62.33-94"/><path class="cls-3" d="M177.27,556s47.36-3.8,53-52c4.5-38.5,82-32,82-32"/><path class="cls-4" d="M176.27,66s-61-58-144,44c-70,112,81,211,120,18"/><path class="cls-5" d="M179.63,68c14.47-12.88,33.92-21.87,55.82-24.89,1.69-.18,3.34-.37,4.94-.58,3.73-.36,7.53-.54,11.38-.54,30.34,0,57.47,11.35,75.54,29.2"/><ellipse class="cls-6" cx="252.27" cy="300.5" rx="14.5" ry="12"/><path class="cls-5" d="M240.39,42.54c-1.6.21-3.25.4-4.94.58C237.08,42.89,238.73,42.7,240.39,42.54Z"/><path class="cls-5" d="M350.23,125.76c23.26,88.52,61.39,117.78,92.37,114.34a45.53,45.53,0,0,0,16.91-5.42c18.16-10,31.32-32,33.08-58.5A97.14,97.14,0,0,0,487,137a119.22,119.22,0,0,0-21.69-37A267.78,267.78,0,0,0,447,80.38h0a170.44,170.44,0,0,0-24.43-19.9c-36.22-23.89-62.9-15.79-78.66-5.17-1,.64-1.87,1.29-2.74,1.94a63.81,63.81,0,0,0-13.86,14"/><path class="cls-5" d="M298.27,14s1.28,21.08-57.88,28.54"/><path class="cls-5" d="M72.77,237.36s-38.5,154.2,179,147.92S434.38,267.74,436.32,240.37"/><circle class="cls-7" cx="185.77" cy="207.5" r="18.5"/><circle class="cls-7" cx="323.77" cy="207.5" r="18.5"/><ellipse class="cls-7" cx="250.77" cy="237.5" rx="23.5" ry="18.5"/><path class="cls-5" d="M208.27,273s0,16.72,19,16.72,21.5-23.22,23.5-33.72c0,0,1.5,33.72,23.5,33.72s21.16-16.86,21.16-16.86"/><line class="cls-5" x1="142.5" y1="369.57" x2="166.77" y2="481.5"/><path class="cls-5" d="M184.77,475.5s-46.5,7.5-46.5,48.5,58,35,58,35,53.5,7.72,57-41"/><path class="cls-5" d="M316.32,472.09s-62.6-2.59-62.6,43.66,50.7,43.66,101.12,43.66,90.8,3.89,103.11-67.76-75.42-132.74-75.42-132.74"/><path class="cls-5" d="M464.27,376s-2-31,23-31c32,0,49,25,49,64-5,43-23.63,69.3-78.32,82.65"/></g></g></svg>