<svg xmlns="http://www.w3.org/2000/svg" viewBox="0 0 520.83 330.06"><defs><style>.cls-1{fill:#00a99d;}.cls-2,.cls-3,.cls-5{fill:none;stroke-linecap:round;stroke-linejoin:round;}.cls-2{stroke:#00a99d;stroke-width:24px;}.cls-3,.cls-5{stroke:#381a69;}.cls-3{stroke-width:28px;}.cls-4{fill:#381a69;}.cls-5{stroke-width:12px;}</style></defs><g id="Capa_2" data-name="Capa 2"><g id="pez"><path class="cls-1" d="M295,313.42c-26.25,3.25-55.46,3.68-87.88.28,0,0,17.76-66.6-75.48-115.44,0,0-62.16,84.36-117.66,91,36-50.83,47.46-85.5,48.44-119.43C94.7,160,133.17,159.64,171.79,171,248.35,193.52,299.42,254.51,295,313.42Z"/><path class="cls-2" d="M483.52,124.64s-101-100.08-263-93.08"/><path class="cls-3" d="M385.13,287.6a259.1,259.1,0,0,0,75.8-55c32.12-33.69,45-65.26,45.86-67.51,0,0,0,0,0-.06s0-.05,0-.07c-.65-1.62-7.49-18.44-23.27-40.32,0,0,0,0,0,0C447.78,75.08,366.25-.31,207.14,16.36c0,0,17.76,66.6-75.48,115.44,0,0-62.16-84.36-117.66-91C51.69,94,62.48,129.49,62.51,165v.13c0,1.59,0,3.17-.07,4.76C61.46,203.78,50,238.45,14,289.28c55.5-6.66,117.66-91,117.66-91C224.9,247.1,207.14,313.7,207.14,313.7c32.42,3.4,61.63,3,87.88-.28q13-1.62,25.09-4.12"/><path class="cls-3" d="M506.83,165.09h0s0,0,0-.06A.15.15,0,0,1,506.83,165.09Z"/><path class="cls-3" d="M506.83,165a.23.23,0,0,1,0,.07s0-.05,0-.07Z"/><path class="cls-3" d="M349.21,83S274.84,194,384.73,287.19"/><path class="cls-3" d="M291.49,69.64S221.1,176.37,320.35,309.39"/><circle class="cls-4" cx="435" cy="151.06" r="20"/><path class="cls-5" d="M466.7,231.57S434,240.84,410,212"/></g></g></svg>