<svg xmlns="http://www.w3.org/2000/svg" viewBox="0 0 596.05 479.16"><defs><style>.cls-1{fill:#00a99d;}.cls-2{fill:none;stroke:#381a69;stroke-linecap:round;stroke-linejoin:round;stroke-width:25px;}.cls-3{fill:#381a69;}</style></defs><g id="Capa_2" data-name="Capa 2"><g id="Capa_7" data-name="Capa 7"><circle class="cls-1" cx="485.05" cy="239.16" r="34.5"/><path class="cls-1" d="M336.55,252.66c25,1,31,4,51,5-1.22,2.93-7.58,2-8,5-26.42-6.42-90.91-4.66-149,55-37,38-10.3,99.92-11,137-55,9.61-50.56-32.41-69.14-50.91a115.49,115.49,0,0,1-.86-14.09C149.55,306.27,226.18,248.24,336.55,252.66Z"/><path class="cls-2" d="M149.7,384c-54.95,9.61-81.71.24-100.29-18.26-8.74-8.69-15.66-19.4-22.86-31.09-29.28-47.58-8-102,20-133,19.44-21.52,99.5-109.5,94-160-3.59-33-39-29-39-29"/><path class="cls-2" d="M382.65,250.23c-26.42-6.42-106.85-20.27-175.1,27.43C168.66,304.83,150.4,346.93,149.7,384c-.79,42.06,21,77.65,60.85,77.65H382.14"/><path class="cls-2" d="M247.55,336.66s75-11,81,60c3,35.36-2,54.59-7.68,65"/><path class="cls-2" d="M464.55,257.66s-1.14-29.93-22.23-39.27c-9-4-23-6.82-39.44,3.27-9.25,5.68-14.83,12.5-17.8,19.67a36.17,36.17,0,0,0-2.43,8.9c-3.32,23.18,17.4,40.93,20.23,45.32-4,15.77-2.08,55.27,45.22,66.25q3.57.84,7.49,1.44l.1,0a131.77,131.77,0,0,0,17.86,1.4s-12.74,8.49-29.8,20c-11.62,7.84-25.24,17.08-38.2,26,5.78,3.68,11.56,9.29,16.95,15.57,15.09,17.61,27.05,40.43,27.05,40.43"/><path class="cls-2" d="M445.55,361.66s83,18,138-33l-70-65s19.5-34.5-12-55c-17.93-11.68-49.45-10.54-59.22,9.73"/><circle class="cls-3" cx="491.05" cy="300.16" r="17.5"/></g></g></svg>